<?xml version="1.0" encoding="UTF-8" standalone="no"?>
<!-- Generator: Adobe Illustrator 27.7.0, SVG Export Plug-In . SVG Version: 6.00 Build 0)  -->

<svg
   version="1.1"
   id="Capa_1"
   x="0px"
   y="0px"
   viewBox="0 0 254.63001 254.63"
   xml:space="preserve"
   sodipodi:docname="logo.svg"
   width="254.63"
   height="254.63"
   inkscape:version="1.3.1 (91b66b0783, 2023-11-16)"
   xmlns:inkscape="http://www.inkscape.org/namespaces/inkscape"
   xmlns:sodipodi="http://sodipodi.sourceforge.net/DTD/sodipodi-0.dtd"
   xmlns="http://www.w3.org/2000/svg"
   xmlns:svg="http://www.w3.org/2000/svg"><defs
   id="defs12">
	
	
	

		
		
		
		
		
		
		
		
		
		
		
	</defs><sodipodi:namedview
   id="namedview12"
   pagecolor="#505050"
   bordercolor="#eeeeee"
   borderopacity="1"
   inkscape:showpageshadow="0"
   inkscape:pageopacity="0"
   inkscape:pagecheckerboard="0"
   inkscape:deskcolor="#505050"
   inkscape:zoom="1.3755128"
   inkscape:cx="177.02489"
   inkscape:cy="155.21484"
   inkscape:window-width="1920"
   inkscape:window-height="1046"
   inkscape:window-x="-11"
   inkscape:window-y="1609"
   inkscape:window-maximized="1"
   inkscape:current-layer="Capa_1" />
<style
   type="text/css"
   id="style1">
	.st0{fill:#1D1D1B;}
	.st1{fill:#C6C6C5;stroke:#1D1D1B;stroke-width:0.2836;stroke-linecap:round;stroke-linejoin:round;}
	.st2{fill:#FFFFFF;stroke:#1D1D1B;stroke-width:0.2836;stroke-linecap:round;stroke-linejoin:round;}
	.st3{fill:#1D1D1B;stroke:#1D1D1B;stroke-width:0.2836;stroke-linecap:round;stroke-linejoin:round;}
</style>

<path
   id="path1"
   style="fill:#1d1d1b"
   class="st0"
   inkscape:label="Base"
   d="m 159.76562,8.49579 c -6.3594,-0.1656709 -13.23237,3.1379 -19.94921,6.369141 -6.97,3.349989 -13.5505,6.508434 -18.73047,5.398437 -3.86,-0.829997 -7.29852,-0.260309 -10.22852,1.679688 -4.35997,2.889991 -6.39143,8.060006 -7.1914,10.75 -10.019978,-4.439988 -16.799394,-5.248429 -21.859379,-2.648438 -4.929985,2.539991 -7.571103,8.038456 -10.621094,14.398438 -0.56,1.169994 -1.140003,2.371565 -1.75,3.601562 -6.509982,13.099961 -20.6793,8.130156 -21.279297,7.910156 -0.48,-0.18 -1.020159,-0.08 -1.410156,0.25 -0.39,0.33 -0.56875,0.84961 -0.46875,1.34961 2.239994,11.389964 12.779859,13.829846 18.089844,14.339843 -1.429997,2.649994 -2.260235,6.67915 -2.740235,10.119141 -0.14,1.009997 -0.561253,1.761253 -1.28125,2.28125 -1.649994,1.199997 -4.568831,1.000312 -5.548828,0.820312 -0.569997,-0.1 -1.15094,0.148675 -1.460937,0.638672 -0.31,0.49 -0.279459,1.12961 0.06055,1.59961 5.309985,7.159979 11.9604,6.761015 15.150391,6.041015 0.529997,5.169985 2.588909,16.980083 3.128906,20.080083 -3.309988,0.64 -6.57024,1.91057 -8.740234,4.31054 -2.509994,2.79 -3.159216,6.59985 -1.949219,11.33985 3.719988,14.54994 16.590875,16.24023 22.38086,16.24023 h 0.289062 c 0.16,1.74 0.521016,5.02995 1.291016,9.41992 -0.02,1.9 -0.01117,3.27899 0.04883,3.95899 0.08,0.93 0.501172,1.75969 1.201172,2.42969 0.779997,3.59997 1.790081,7.61992 3.080078,11.91992 v 0.0996 c 0.07832,0.53846 7.863465,51.97584 19.57227,82.28711 h 0.33789 c 0.9331,-0.004 1.81572,0.27957 2.67383,0.61328 0.2575,0.0981 0.52701,0.15355 0.79297,0.22265 0.36041,0.0838 0.71637,0.19009 1.08398,0.23829 0.61343,0.11536 1.23276,0.18239 1.84961,0.27539 0.81266,0.13605 1.62319,0.28013 2.43555,0.41796 0.75304,0.1521 1.51347,0.25444 2.27734,0.33204 1.06698,0.13153 2.13733,0.24292 3.20899,0.32812 1.43007,0.10704 2.86349,0.13701 4.29687,0.16211 1.68639,0.0255 3.374,0.0311 5.06055,0.0371 0.2983,10e-4 0.59635,9.5e-4 0.89453,0.002 0.61807,-0.20552 1.34365,-0.33924 2.18359,-0.36718 0.13778,-0.005 0.27647,0.008 0.41407,0 0.0393,-0.002 0.0781,-0.0155 0.11718,-0.0195 0.30258,-0.0337 0.60542,-0.0602 0.90821,-0.0918 1.18033,-0.15335 2.36482,-0.25429 3.55078,-0.35156 1.23656,-0.10915 2.4716,-0.24616 3.70507,-0.38477 0.84408,-0.0892 1.68324,-0.21207 2.5254,-0.31641 0.11324,-0.0138 0.22497,-0.0369 0.33789,-0.0527 -0.0157,-1.59741 1.50641,-3.14951 4.44531,-3.08985 0.18667,0.004 0.37813,0.0141 0.57617,0.0313 0.28972,0.0252 0.57962,0.0492 0.86719,0.0937 0.32701,0.0492 0.65654,0.0624 0.98633,0.0898 0.33325,0.034 0.66605,0.0744 0.99804,0.11914 0.32531,0.0438 0.65196,0.0677 0.97852,0.0996 0.0767,0.008 0.15373,0.0141 0.23047,0.0215 5.56119,-21.47574 7.04102,-39.63101 7.05078,-39.8164 0.02,-0.23 -0.0294,-0.45016 -0.10938,-0.66016 1.01,-1.91 1.68868,-3.8993 2.13868,-5.7793 0.25,-0.14 0.46963,-0.34132 0.5996,-0.61132 8.74,-17.75997 19.47024,-55.92928 18.74024,-69.94922 4.52997,0.39 8.07078,-0.38055 10.55078,-2.31055 2.77,-2.15 3.09938,-4.96984 3.10938,-5.08984 0.06,-0.52 -0.17938,-1.02032 -0.60938,-1.32032 -0.43,-0.3 -0.98922,-0.32963 -1.44922,-0.0996 -1.06,0.54 -4.28156,1.76037 -6.35156,0.9004 -0.89,-0.37 -1.49914,-1.10047 -1.86914,-2.23047 -0.54,-1.64 -0.73055,-2.62969 -0.56055,-2.92969 0.22,-0.41 1.89969,-0.85987 3.67969,-1.33984 1.83,-0.49 4.33,-1.16079 7.5,-2.30079 2.98,-1.07 5.00125,-2.95893 6.03125,-5.6289 1.92,-5.01 -0.34016,-11.39993 -1.66016,-14.41993 1.47,-0.449996 2.63047,-1.270937 3.48047,-2.460934 2.36,-3.329991 1.0793,-8.29 1.0293,-8.5 -0.2,-0.559997 -0.70987,-1.050312 -1.33984,-1.070312 -0.64,-0.02 -1.15133,0.310862 -1.36133,0.880859 -0.12,0.2 -1.05844,1.53024 -4.39844,2.740234 -0.04,0.01 -0.0697,0.01922 -0.17969,-0.05078 -1.77,-1.049997 -3.63094,-7.599937 -4.71094,-13.169922 8.34,3.819988 12.02922,-0.908906 12.19922,-1.128906 0.27,-0.36 0.35047,-0.82 0.23047,-1.25 -0.13,-0.43 -0.44914,-0.779688 -0.86914,-0.929688 -13.31997,-4.859985 -12.66992,-12.621355 -11.91992,-21.611328 0.2,-2.429991 0.41031,-4.940399 0.32031,-7.40039 -0.57,-14.859955 -21.43081,-30.658451 -27.80078,-35.148438 -2.61562,-1.8406191 -5.40037,-2.6336791 -8.29102,-2.708984 z" /><g
   id="g12"
   inkscape:label="Piel"
   style="display:inline"
   transform="translate(0,8.4821181)"><path
     class="st1"
     d="m 166.52646,191.08185 c -0.02,-0.77 -0.06,-1.25 -0.07,-1.34 -0.07,-0.78 -0.76,-1.34 -1.54,-1.28 -0.78,0.07 -1.35,0.76 -1.28,1.54 0.01,0.1 0.91,10.57 -5.04,17.12 -3.17,3.49 -7.78,5.27 -13.7,5.28 -0.1,0 -0.19,0.01 -0.29,0.03 -0.12,0.03 -12.41,2.52 -19.31,-2.07 -2.36,-1.57 -3.78,-3.74 -4.34,-6.64 -0.15,-0.77 -0.89,-1.27 -1.66,-1.12 -0.77,0.15 -1.27,0.89 -1.12,1.66 0.7,3.63 2.57,6.48 5.56,8.47 3.89,2.58 9.01,3.25 13.28,3.25 4.02,0 7.28,-0.59 8.03,-0.74 1.61,-0.01 3.14,-0.14 4.59,-0.39 -4.65,8.85 -15.54,7.29 -16.04,7.22 -0.78,-0.12 -1.5,0.41 -1.62,1.18 -0.12,0.77 0.41,1.5 1.18,1.62 0.04,0.01 1.04,0.15 2.58,0.15 4.54,0 13.79,-1.27 17.38,-11.06 2.85,-0.98 5.28,-2.53 7.29,-4.64 -0.74,6.54 -2.64,20.5 -6.76,36.17 -11.71,11.04 -36.05,4.45 -41.25,2.87 -8.07,-19.73 -14.379996,-50.29 -17.709996,-68.62 3.18,7.56 7.259996,15.43 12.489996,23.04 0.27,0.4 0.72,0.61 1.17,0.61 0.28,0 0.56,-0.08 0.8,-0.25 0.65,-0.44 0.81,-1.33 0.37,-1.97 -11.259996,-16.37 -17.089996,-34.02 -20.079996,-46.92 1.53,0.36 3.24,0.47 4.69,0.47 1.71,0 3.07,-0.14 3.4,-0.18 0.44,-0.05 0.83,-0.3 1.06,-0.69 0.23,-0.38 0.26,-0.85 0.09,-1.26 -4.82,-11.9 -5.78,-37.15 -5.91,-51.45 l 3.02,-2.149986 3.05,-0.45 c 0,0.2 -0.01,0.4 -0.01,0.6 0,15.659986 11.729996,28.399986 26.149996,28.399986 14.42,0 26.15,-12.74 26.15,-28.399986 0,-4.540001 -0.99,-8.830001 -2.74,-12.640001 1.44,-0.91 3.7,-1.92 5.11,-0.98 0.01,0.01 0.03,0.02 0.05,0.02 14.65,31.669987 16.72,50.279987 16.95,53.099987 -3.86,6.82 -18.46,10.29 -18.61,10.32 -0.76,0.18 -1.24,0.94 -1.06,1.7 0.15,0.65 0.74,1.1 1.38,1.1 0.11,0 0.21,-0.01 0.32,-0.04 0.67,-0.16 16.51,-3.91 20.68,-12.14 0.11,-0.22 0.16,-0.46 0.15,-0.71 -0.02,-0.47 -0.39,-6.96 -3.8,-19.08 1.28,0.27 2.59,0.41 3.89,0.41 2.32,0 4.55,-0.43 6.65,-1.22 0.87,3.1 1.55,5.95 1.92,8.23 1.68,10.58 -7.16,43.94 -15.49,63.87 z"
     id="path2"
     style="fill:#c6c6c5;stroke:#1d1d1b;stroke-width:0.2836;stroke-linecap:round;stroke-linejoin:round" /><path
     class="st1"
     d="m 92.806464,90.811863 c 1.33,-3 4.91,-12.04 4.1,-20.82 -0.79,-8.55 2.35,-14.37 3.05,-15.53 1.589996,-1.04 11.599996,-7.21 27.779996,-8.78 1.73,2.77 7.93,11.42 16.44,9.14 6.16,-1.65 9.51,-2.8 11.04,-3.38 3.03,3.89 6.73,8.76 9.79,12.97 -2.67,-0.9 -7.54,-1.67 -12.79,1.79 0,0 2.82,5.37 2.68,8.83 0,0 5.56,-4.79 11.52,-4.25 -4.78,1.9 -8.9,5.72 -11.56,10.84 -0.01,-0.03 -0.03,-0.05 -0.04,-0.08 -0.34,-0.71 -1.18,-1.01 -1.89,-0.67 -0.37,0.18 -0.63,0.49 -0.74,0.86 -2.05,0 -4.05,0.93 -5.39,1.75 -3.04,-4.98 -7.49,-8.87 -12.72,-10.98 3.25,0.28 5.14,0.87 5.14,0.87 2.78,-4.41 -1.18,-10.34 -1.18,-10.34 -16.51,-1.92 -22.79,6.41 -24.93,10.82 -7.08,3.94 -12.29,11.29 -13.799996,20.04 -0.02,0 -0.03,0 -0.05,0 l -4.64,0.68 c -0.36,0.05 -0.69,0.19 -0.98,0.4 l -0.85,0.61 c -0.02,-2.63 0.01,-4.35 0.02,-4.77 z"
     id="path5"
     style="fill:#c6c6c5;stroke:#1d1d1b;stroke-width:0.2836;stroke-linecap:round;stroke-linejoin:round" /><path
     class="st1"
     d="m 63.736467,119.95185 c -0.97,-3.81 -0.55,-6.66 1.31,-8.74 4.81,-5.36 17.519997,-3.75 18.239997,-3.66 0.73,2.45 1.18,6.41 1.44,10.92 -13.449997,-4.68 -18.229997,-1.03 -18.739997,-0.59 -0.59,0.51 -0.67,1.42 -0.16,2.01 0.51,0.59 1.39,0.67 1.99,0.16 0.02,-0.02 1.19,-0.88 4.08,-1.05 -1.12,3.26 -1.05,5.97 0.23,8.07 2.12,3.47 6.669997,3.75 6.859997,3.76 0.02,0 0.05,0 0.07,0 0.75,0 1.38,-0.59 1.42,-1.35 0.04,-0.78 -0.56,-1.45 -1.34,-1.49 -0.03,0 -3.26,-0.23 -4.589997,-2.4 -0.92,-1.51 -0.79,-3.7 0.36,-6.53 2.509997,0.23 5.789997,0.93 9.979997,2.47 0.16,4.13 0.2,8.51 0.19,12.47 -0.02,0 -0.05,0 -0.07,0.01 -0.04,0 -0.07,-0.01 -0.11,-0.01 -0.06,0 -0.12,0.02 -0.18,0.03 -4.01,0.3 -17.339997,0.13 -20.979997,-14.08 z"
     id="path7"
     style="fill:#c6c6c5;stroke:#1d1d1b;stroke-width:0.2836;stroke-linecap:round;stroke-linejoin:round" /></g><g
   id="g13"
   inkscape:label="Lentes"
   style="display:inline"
   transform="translate(0,8.4821181)"><ellipse
     class="st2"
     cx="124.97646"
     cy="99.141861"
     rx="22.75"
     ry="25"
     id="ellipse5"
     style="fill:#ffffff;stroke:#1d1d1b;stroke-width:0.2836;stroke-linecap:round;stroke-linejoin:round" /><path
     class="st2"
     d="m 173.72646,72.861863 c -1.15,0.01 -2.93,0.22 -2.93,0.22 -6.11,1.07 -11.44,5.79 -14.05,12.64 0.48,1.04 0.94,2.07 1.39,3.08 l 1.15,2.63 c 4.15,9.599987 7.07,17.789987 9.14,24.539987 1.63,0.56 3.32,0.84 5.02,0.84 1.99,0 3.9,-0.39 5.7,-1.09 1.57,-0.63 2.58,-1.28 2.58,-1.28 5.98,-3.63 10.09,-11.06 10.09,-19.609987 0,-12.01 -8.09,-21.79 -18.09,-21.97 z"
     id="path10"
     style="fill:#ffffff;stroke:#1d1d1b;stroke-width:0.2836;stroke-linecap:round;stroke-linejoin:round" /></g><g
   id="g14"
   inkscape:label="Trazos"
   style="display:inline"
   transform="translate(0,8.4821181)"><path
     class="st0"
     d="m 127.60646,158.99185 c -1.91,0.26 -5.5,1.88 -5.4,6.15 0.02,0.77 0.65,1.39 1.42,1.39 0.01,0 0.02,0 0.03,0 0.78,-0.02 1.4,-0.67 1.38,-1.45 -0.06,-2.74 2.64,-3.23 2.95,-3.28 0.77,-0.11 1.31,-0.82 1.21,-1.59 -0.1,-0.79 -0.81,-1.33 -1.59,-1.22 z"
     id="path3"
     style="fill:#1d1d1b" /><path
     class="st0"
     d="m 165.53646,163.36185 c 0.84,-3.42 1.29,-6.66 1.38,-7.28 0.1,-0.78 -0.44,-1.49 -1.22,-1.59 -0.78,-0.11 -1.49,0.44 -1.59,1.22 -0.39,2.88 -1.79,10.75 -3.72,13.44 -0.33,0.16 -0.94,0.43 -1.8,0.72 -0.07,0 -0.14,0 -0.22,0.02 -0.2,0.04 -0.39,0.12 -0.55,0.23 -4.1,1.24 -12.28,2.44 -21.93,-2.93 -0.68,-0.38 -1.55,-0.14 -1.93,0.55 -0.38,0.69 -0.14,1.55 0.55,1.93 5.98,3.33 11.47,4.35 15.95,4.35 2.6,0 4.86,-0.34 6.67,-0.78 -0.14,0.56 -0.42,1.16 -0.95,1.66 -1.1,1.04 -3.66,2 -9.57,0.64 -0.76,-0.17 -1.52,0.3 -1.7,1.06 -0.18,0.76 0.3,1.52 1.06,1.7 2.14,0.49 4.05,0.74 5.72,0.74 0.54,0 1.04,-0.03 1.53,-0.08 0.26,2.04 0.63,7.06 -1,11.67 -0.26,0.74 0.13,1.55 0.86,1.81 0.16,0.06 0.32,0.08 0.47,0.08 0.58,0 1.13,-0.36 1.34,-0.95 1.92,-5.44 1.39,-11.17 1.1,-13.27 0.83,-0.34 1.56,-0.79 2.16,-1.37 1.54,-1.48 1.89,-3.35 1.93,-4.58 1.12,-0.41 1.78,-0.76 1.89,-0.82 0.16,-0.09 0.31,-0.21 0.42,-0.35 0.93,-1.14 1.72,-2.98 2.36,-5.01 0.55,0.37 1.12,1.03 1.06,2.18 -0.04,0.78 0.56,1.45 1.34,1.49 0.03,0 0.05,0 0.08,0 0.75,0 1.37,-0.58 1.41,-1.34 0.17,-2.83 -1.59,-4.43 -3.1,-5.14 z"
     id="path4"
     style="fill:#1d1d1b" /><path
     class="st3"
     d="m 87.776464,146.11185 c 0.01,-0.97 0.03,-2.06 0.04,-3.25 0.21,-15.1 0.2,-30.14 -2.06,-36.73 l 4.18,-2.97 c 0.18,14.01 1.19,36.3 5.45,48.7 -2.32,0.1 -5.16,-0.06 -6.66,-0.82 -0.37,-1.77 -0.68,-3.41 -0.95,-4.93 z"
     id="path6"
     style="fill:#1d1d1b;stroke:#1d1d1b;stroke-width:0.2836;stroke-linecap:round;stroke-linejoin:round" /><path
     class="st3"
     d="m 189.17646,123.33185 c 1.69,0.69 3.61,0.57 5.21,0.22 -0.17,0.18 -0.37,0.35 -0.59,0.52 -1.97,1.53 -5.13,2.09 -9.17,1.66 -0.43,-2.3 -1.1,-5.02 -1.92,-7.93 0.77,-0.42 1.52,-0.9 2.24,-1.42 0.08,0.84 0.35,1.81 0.73,2.99 0.63,1.91 1.84,3.28 3.5,3.96 z"
     id="path8"
     style="fill:#1d1d1b;stroke:#1d1d1b;stroke-width:0.2836;stroke-linecap:round;stroke-linejoin:round" /><path
     class="st3"
     d="m 204.50646,87.771863 c -0.69,0.97 -1.78,1.5 -3.34,1.62 -0.48,0.04 -0.9,0.31 -1.13,0.74 -0.23,0.42 -0.23,0.93 0,1.35 0.04,0.08 4.43,8.360001 2.34,13.799987 -0.72,1.89 -2.14,3.18 -4.33,3.97 -3.06,1.1 -5.5,1.75 -7.28,2.23 -0.39,0.11 -0.76,0.2 -1.1,0.3 3.46,-4.5 5.57,-10.44 5.57,-16.939987 0,-14 -9.77,-25.39 -21.77,-25.39 -0.49,0 -0.98,0.02 -1.47,0.06 -4.03,-6.32 -13.88,-18.96 -15.19,-20.63 -0.4,-0.51 -1.1,-0.69 -1.7,-0.42 -0.03,0.01 -3.03,1.33 -11.66,3.64 -7.73,2.07 -13.64,-8.47 -13.7,-8.57 -0.27,-0.49 -0.8,-0.78 -1.36,-0.73 -18.96,1.61 -29.829996,9.2 -30.289996,9.52 -0.14,0.1 -0.26,0.22 -0.35,0.36 -0.19,0.28 -4.63,6.99 -3.65,17.59 0.9,9.68 -4.24,20.21 -4.29,20.32 -0.25,0.5 -0.17,1.08 0.15,1.49 -0.02,1.22 -0.04,3.13 -0.04,5.550001 l -7.76,5.519986 -7.769997,0.8 c -1.05,-5.999986 -3.13,-18.409987 -3.12,-20.889987 0,-0.48 -0.24,-0.93 -0.64,-1.19 -0.4,-0.26 -0.91,-0.3 -1.35,-0.11 -0.28,0.12 -6.08,2.59 -11.45,-2.2 1.38,-0.13 2.92,-0.51 4.19,-1.42 1.37,-0.99 2.19,-2.4 2.44,-4.19 1.05,-7.53 2.76,-10.18 3.51,-10.53 0.62,-0.29 0.94,-0.97 0.78,-1.63 -0.17,-0.66 -0.77,-1.1 -1.45,-1.07 -0.15,0.01 -13.78,0.64 -17.58,-9.9 5.04,1.04 16.41,1.85 22.29,-9.97 0.62,-1.24 1.2,-2.46 1.77,-3.64 6.009997,-12.54 9.319997,-19.45 30.269993,-9.71 0.4,0.18 0.85,0.17 1.24,-0.02 0.39,-0.2 0.66,-0.57 0.75,-0.99 0.01,-0.07 1.48,-7.38 6.42,-10.65 2.27,-1.5 4.98,-1.92 8.06,-1.26 6.13,1.32 13.14,-2.05 20.56,-5.6200001 9.03,-4.3399997 18.36,-8.8299997 25.38,-3.8999997 12.59,8.8599998 26.19,22.1599998 26.6,32.9399998 0.09,2.29 -0.12,4.71 -0.31,7.05 -0.7,8.34 -1.48,17.74 11.25,23.48 -1.71,0.57 -4.66,0.62 -9.22,-2.15 -0.47,-0.29 -1.07,-0.27 -1.52,0.03 -0.46,0.31 -0.7,0.85 -0.62,1.39 0.4,2.59 2.58,15.65 6.55,18.01 0.83,0.49 1.73,0.59 2.6,0.27 1.6,-0.58 2.78,-1.2 3.66,-1.79 -0.05,1.2 -0.26,2.52 -0.94,3.48 z"
     id="path9"
     style="fill:#1d1d1b;stroke:#1d1d1b;stroke-width:0.2836;stroke-linecap:round;stroke-linejoin:round" /><path
     class="st0"
     d="m 139.95646,95.001863 c -0.18,-3.29 -0.96,-6.35 -2.18,-8.99 l -11.39,0.33 8.82,-4.49 c -2.52,-3.07 -5.84,-4.94 -9.47,-4.94 -7.88,0 -14.27,8.77 -14.27,19.58 0,0.14 0.01,0.27 0.01,0.410001 3.43,-2.340001 13,-7.140001 28.48,-1.900001 z"
     id="path11"
     style="fill:#1d1d1b" /><path
     class="st0"
     d="m 166.99646,88.961863 5.69,1.34 c -0.22,-1.83 -0.61,-3.53 -1.15,-5.06 l -6.88,0.26 5.32,-3.55 c -1.52,-2.43 -3.52,-3.91 -5.72,-3.91 -3.24,0 -6.06,3.21 -7.53,7.96 l 2.25,4.51 z"
     id="path12"
     style="fill:#1d1d1b" /></g></svg>
