<?xml version="1.0" encoding="UTF-8" standalone="no"?>
<svg
   version="1.1"
   id="Capa_1"
   x="0px"
   y="0px"
   viewBox="0 0 345.66 88.11"
   style="enable-background:new 0 0 345.66 88.11;"
   xml:space="preserve"
   sodipodi:docname="ramblas.svg"
   inkscape:version="1.4.2 (f4327f4, 2025-05-13)"
   xmlns:inkscape="http://www.inkscape.org/namespaces/inkscape"
   xmlns:sodipodi="http://sodipodi.sourceforge.net/DTD/sodipodi-0.dtd"
   xmlns="http://www.w3.org/2000/svg"
   xmlns:svg="http://www.w3.org/2000/svg"><defs
   id="defs6" /><sodipodi:namedview
   id="namedview6"
   pagecolor="#ffffff"
   bordercolor="#000000"
   borderopacity="0.25"
   inkscape:showpageshadow="2"
   inkscape:pageopacity="0.0"
   inkscape:pagecheckerboard="0"
   inkscape:deskcolor="#d1d1d1"
   inkscape:zoom="1.8083735"
   inkscape:cx="133.54542"
   inkscape:cy="31.796529"
   inkscape:window-width="1920"
   inkscape:window-height="1046"
   inkscape:window-x="-11"
   inkscape:window-y="-11"
   inkscape:window-maximized="1"
   inkscape:current-layer="Capa_1" />
<style
   type="text/css"
   id="style1">
	.st0{fill-rule:evenodd;clip-rule:evenodd;fill:#FFFFFF;}
</style>
<g
   id="g6"
   style="fill:#40af00;fill-opacity:1">
	<path
   class="st0"
   d="M32.89,16.98c-0.48,0.92-3.27,5.74-4.1,5.9c-0.1,1.47-4.79,7.61-5.81,9.08l0.74,2.73l0.98-1.84l0.74-0.44   l0.67-1.33c1.75-0.87,3.51-5.36,5.32-7.3c-0.54,3.52-1.73,8.51-5.56,9.59c-0.76,1.52-2.63,3-2.63,3c2.27,0.87,4.54,0.31,6.3-1.4   c-0.3,4.25-1.1,8.72-3.42,12.32c-1.59-0.95-2.42-2.79-2.87-4.57c-0.12-0.02-0.33-0.25-0.22-0.31l0.71-0.14   c1.65-0.03,1.91-0.32,1.89-2.29c-1.38-0.15-2.76-0.48-4.09-0.89c-1.58-6.17-3.6-24.98-5.06-27.8c-0.65-0.76-0.04,4-0.26,7.53   l-0.49,0.44c0.12,6.82,1.5,20.46-4.34,24.33l-0.49,1.84l-0.49-1.33c3.74-4.9,4.73-7.38,4.09-13.48c-2.53,6.4-0.78,11.53-8.92,14.81   l-0.49,2.73l1.96-0.44c0.43,2.08,2.56,1.86,4.09,1.33C9.16,53.67,5.65,59.52,0,58.59c0.05,1.99,0.88,3.23,2.87,2.29   c0.82,6.26,3.58,6.08,7.28,1.84C7.8,66.97,4.6,71.4,0,73.13l0.24,2.29l2.2-0.45c1.8-2.11,3.9-4.4,6.48-5.46   c-0.49,0.36-3.78,8.18-7.95,11.36c0.03,2.34,0.38,4.95,1.89,6.79c1.36-0.14,2.85,0.11,4.16,0.44c1.54-0.76,2.64-2.06,4.34-2.73   c0.69-3.05,8.24-9.22,12.1-7.68c0.25-1.08,0.98-2.47,2.14-1.4l-0.18,1.4c1.25-1.86,2.04,0.02,2.38,1.33l0.73-0.89l-0.24,1.84   l1.47-0.95c-0.08-1.24-0.46-2.5-0.98-3.62c0.98-0.52,1.97-0.57,1.22,0.89l0.98-0.89c1.52,1.74,1.92,4.44,1.92,4.44   s11.98,0,12.03,0.04c-1.04-3.36-0.97-7.22-2.14-10.38c-2.75-7.36-3.3-14.83-3.36-22.73c1.06,0.24,2.16,0.52,3.18,0.95   c1.17,1.88-0.8-3.98-2.44-10.03h1.71l1.41,0.95h0.73c1.12,0.81,2.56,1.44,3.91,0.89l0.24,1.33c0.44-0.59,1.25-0.78,1.89-0.44   c-0.03-0.16-0.94-4.84,0.16-2.53l0.33,0.75c-0.11-1.31,2.18,0.55,2.18,0.55c-3.46-3.87-2.72-3.2-4.81-4.06   c-0.75-1.05-1.11-2.33-1.22-3.62c-6.83-5.54-7.48-19.09-9.37-20.92c-0.38-0.28-0.36,2.62-0.78,5.49   c-0.17-3.39-2.03-10.68-1.71-15.13c0.07-1.23-0.6-1.16-0.73-0.44C32.85,9.76,33.5,7.93,32.89,16.98z M9.9,44.56   c0.2,0.67,0.17,1.09-0.49,0.44L9.9,44.56z"
   id="path1"
   style="fill:#40af00;fill-opacity:1" />
	<path
   class="st0"
   d="M44.88,57.38V47.01h7.84c4.01,0,6.48,1.73,6.48,5.12v0.12c0,3.15-2.35,5.12-6.42,5.12H44.88z M32.9,79.85   h11.98V66.76h5.12h0.12l8.7,13.09h13.83L62.35,64.79c5.37-2.28,8.89-6.67,8.89-13.27v-0.12c0-4.26-1.3-7.59-3.83-10.06   c-2.9-2.96-7.47-4.69-14.08-4.69H32.9V79.85z"
   id="path2"
   style="fill:#40af00;fill-opacity:1" />
	<path
   class="st0"
   d="M93.04,62.81l4.88-12.29l4.82,12.29H93.04z M73.83,79.85h12.6l3.09-7.72h16.67l3.15,7.72h12.84l-18.4-43.52   H92.23L73.83,79.85z"
   id="path3"
   style="fill:#40af00;fill-opacity:1" />
	<polygon
   class="st0"
   points="126.37,79.85 138.1,79.85 138.1,55.16 149.09,71.95 149.34,71.95 160.39,55.03 160.39,79.85    172.3,79.85 172.3,36.64 159.65,36.64 149.34,53.37 139.03,36.64 126.37,36.64  "
   id="polygon3"
   style="fill:#40af00;fill-opacity:1" />
	<path
   class="st0"
   d="M191.62,70.22v-7.96h9.14c4.01,0,5.86,1.54,5.86,3.89v0.12c0,2.53-2.1,3.95-5.74,3.95H191.62z M191.62,53.86   v-7.59h7.78c3.58,0,5.43,1.36,5.43,3.7v0.12c0,2.53-2.04,3.77-5.68,3.77H191.62z M179.96,79.85h22.29   c10.31,0,16.36-4.51,16.36-11.91v-0.12c0-5.86-3.33-8.83-8.58-10.56c3.83-1.67,6.67-4.63,6.67-9.63V47.5   c0-2.96-1.05-5.25-2.78-6.98c-2.53-2.53-6.36-3.89-11.79-3.89h-22.16V79.85z"
   id="path4"
   style="fill:#40af00;fill-opacity:1" />
	<polygon
   class="st0"
   points="224.1,79.85 257,79.85 257,69.36 236.07,69.36 236.07,36.64 224.1,36.64  "
   id="polygon4"
   style="fill:#40af00;fill-opacity:1" />
	<path
   class="st0"
   d="M277.87,62.81l4.88-12.29l4.81,12.29H277.87z M258.67,79.85h12.59l3.09-7.72h16.67l3.15,7.72h12.84   l-18.4-43.52h-11.55L258.67,79.85z"
   id="path5"
   style="fill:#40af00;fill-opacity:1" />
	<path
   class="st0"
   d="M328.18,80.59c10.49,0,17.47-5.25,17.47-14.07v-0.12c0-8.09-6.18-11.3-16.11-13.46   c-5.99-1.36-7.47-2.22-7.47-4.2v-0.12c0-1.54,1.42-2.78,4.32-2.78c3.83,0,8.15,1.48,12.1,4.26l5.99-8.46   c-4.69-3.77-10.43-5.74-17.78-5.74c-10.37,0-16.73,5.8-16.73,13.83v0.13c0,8.89,7.1,11.48,16.29,13.58   c5.86,1.36,7.28,2.35,7.28,4.14v0.12c0,1.85-1.73,2.96-4.94,2.96c-5,0-9.76-1.79-14.01-5.18l-6.67,7.96   C313.24,78.18,320.53,80.59,328.18,80.59z"
   id="path6"
   style="fill:#40af00;fill-opacity:1" />
</g>
</svg>
