<svg id="Capa_1" data-name="Capa 1" xmlns="http://www.w3.org/2000/svg" xmlns:xlink="http://www.w3.org/1999/xlink" viewBox="0 0 242.48 91.82"><defs><style>.cls-1{fill:url(#Degradado_sin_nombre_8);}</style><linearGradient id="Degradado_sin_nombre_8" x1="132.5" y1="102.41" x2="132.5" y2="10.59" gradientUnits="userSpaceOnUse"><stop offset="0" stop-color="#4068a6"/><stop offset="1" stop-color="#009cdf"/></linearGradient></defs><title>SERODE_LOGO</title><path class="cls-1" d="M48.27,62.85a56.26,56.26,0,0,1,.29,6.23v14.4a53.91,53.91,0,0,1-.74,10A10.6,10.6,0,0,1,45,99.18a10.49,10.49,0,0,1-5.67,2.61,58.2,58.2,0,0,1-9.41.62,54.21,54.21,0,0,1-9.06-.62,10.62,10.62,0,0,1-5.56-2.55,10.57,10.57,0,0,1-2.83-5.67,50.61,50.61,0,0,1-.8-10.09V65.68h12.7v17.8a34.31,34.31,0,0,0,.17,3.8,4.72,4.72,0,0,0,.74,2.21A2.78,2.78,0,0,0,27,90.57a11.76,11.76,0,0,0,2.89.28c2.42,0,3.95-.45,4.59-1.36s1-2.91,1-6V70A21,21,0,0,0,35,64.78a6,6,0,0,0-2.61-3.07c-.75-.52-1.7-1.11-2.83-1.75l-3.63-2L22,55.71q-2-1.14-3.57-2.16a25.69,25.69,0,0,1-3.8-3,10.21,10.21,0,0,1-2.15-3.12,13.09,13.09,0,0,1-1-3.85,49.87,49.87,0,0,1-.23-5.33V29.63a52.94,52.94,0,0,1,.74-10,11.09,11.09,0,0,1,2.72-5.78,9.82,9.82,0,0,1,5.55-2.67,57.13,57.13,0,0,1,9.35-.62,57.18,57.18,0,0,1,9.36.62,10.13,10.13,0,0,1,5.61,2.67,11,11,0,0,1,2.78,5.78,53.93,53.93,0,0,1,.73,10V40.74H35.41V29.63a35.84,35.84,0,0,0-.17-3.85,4.51,4.51,0,0,0-.74-2.21,3,3,0,0,0-1.7-1,12.46,12.46,0,0,0-2.95-.29,12.17,12.17,0,0,0-3,.29,3,3,0,0,0-1.65,1,4.42,4.42,0,0,0-.73,2.21,33.4,33.4,0,0,0-.17,3.85v8.84a10.69,10.69,0,0,0,.56,4,6.63,6.63,0,0,0,2.84,2.66A50.11,50.11,0,0,0,32.85,48q3.24,1.59,7.09,4a45.46,45.46,0,0,1,4.59,3.28,9.79,9.79,0,0,1,2.61,3.29A13.78,13.78,0,0,1,48.27,62.85Zm21.94-17H82.34V35.53H70.21v-13H82.68V11.72H57.17v89.56H82.79V90.06H70.21ZM127,20.51a48.79,48.79,0,0,1,.73,9.46v9.41a18.57,18.57,0,0,1-.73,5.73A10.58,10.58,0,0,1,125,48.68a7.43,7.43,0,0,1-2.61,2,17.07,17.07,0,0,1-2.78,1v.45a15.91,15.91,0,0,1,3.29,1.19,6.93,6.93,0,0,1,2.55,2.27,11.27,11.27,0,0,1,1.65,3.91,27.6,27.6,0,0,1,.56,6.12v35.71H114.53V63.53c0-2.42-.3-4.1-.9-5.05s-2-1.41-4.31-1.41h-5.9v44.21h-13V11.72H109a58.29,58.29,0,0,1,9.41.62A10.83,10.83,0,0,1,124.11,15,10.36,10.36,0,0,1,127,20.51ZM114.53,30a26.89,26.89,0,0,0-.17-3.46,4.65,4.65,0,0,0-.73-2.09,2.87,2.87,0,0,0-1.7-1.08,12.53,12.53,0,0,0-3-.28h-5.56V46.75h5.9c2.11,0,3.51-.41,4.19-1.25s1-2.34,1-4.53ZM215.7,14.9A11,11,0,0,0,210,12.34a58.29,58.29,0,0,0-9.41-.62H182V36.16l13-13.1h5.56a20.4,20.4,0,0,1,2.06.09c.31,0,.58.08.83.13a2.65,2.65,0,0,1,1.64,1,5.25,5.25,0,0,1,.8,2.16,22.39,22.39,0,0,1,.22,3.51V82.91a24.52,24.52,0,0,1-.22,3.69,4.84,4.84,0,0,1-.8,2.15,2.94,2.94,0,0,1-1.64,1,11.69,11.69,0,0,1-2.89.29H195V39L182,52v49.27h18.59a58.29,58.29,0,0,0,9.41-.62,11,11,0,0,0,5.72-2.56,10,10,0,0,0,2.84-5.55,50.56,50.56,0,0,0,.73-9.64V30a49.66,49.66,0,0,0-.73-9.58A10,10,0,0,0,215.7,14.9Zm25.46,75.16V45.84h12.13V35.53H241.16v-13h12.47V11.72H228.12v89.56h25.62V90.06ZM169.57,13.82a10.83,10.83,0,0,0-5.72-2.61,58.29,58.29,0,0,0-9.41-.62,58.11,58.11,0,0,0-9.41.62,10.49,10.49,0,0,0-5.67,2.61,10.54,10.54,0,0,0-2.78,5.67,52.83,52.83,0,0,0-.74,9.92V83.48a53.91,53.91,0,0,0,.74,10,10.6,10.6,0,0,0,2.78,5.72,10.49,10.49,0,0,0,5.67,2.61,58.11,58.11,0,0,0,9.41.62,58.29,58.29,0,0,0,9.41-.62,10.83,10.83,0,0,0,5.72-2.61,10.37,10.37,0,0,0,2.83-5.72,53.05,53.05,0,0,0,.74-10V60.85l-9.68,9.68-.86.84-.5.52a11.57,11.57,0,0,1-2.17,1.77,3.1,3.1,0,0,1-2,.44l-.2,0a3.12,3.12,0,0,1-1.24-.43,12.88,12.88,0,0,1-2.29-1.89l-.37-.39-.83-.81L144.52,62q-3.14-3.13-3.37-4.81c-.16-1.13.61-2.54,2.32-4.25a11.9,11.9,0,0,1,2.17-1.77,3.28,3.28,0,0,1,1.92-.48,4.11,4.11,0,0,1,2.09,1,30.45,30.45,0,0,1,2.72,2.48L158.25,60l14.89-15V29.41a52,52,0,0,0-.74-9.92A10.31,10.31,0,0,0,169.57,13.82Z" transform="translate(-11.26 -10.59)"/></svg>